/* XPM */
static char *bubblun_R01690190660[] = {
/* columns rows colors chars-per-pixel */
"80 80 5 1 ",
"  c black",
". c #FF7777",
"X c #01FF00",
"o c yellow",
"O c white",
/* pixels */
"                                                                                ",
"                                                                                ",
"                                                                                ",
"                                                                                ",
"                                                                                ",
"                                                                                ",
"                                                                                ",
"                                                                                ",
"                                        oooo                                    ",
"                                        oooo                                    ",
"                                        oooo                                    ",
"                                        oooo                                    ",
"                                    oooooooooooo                                ",
"                                    oooooooooooo                                ",
"                        O           oooooooooooo                                ",
"                                    oooooooooooo                                ",
"                    ooooooooooooooooXXXXXXXXXXXXXXXXXXXX                        ",
"                    ooooooooooooooooXXXXXXXXXXXXXXXXXXXX                        ",
"                    ooooooooooooooooXXXXXXXXXXXXXXXXXXXX                        ",
"                    ooooooooooooooooXXXXXXXXXXXXXXXXXXXX                        ",
"                        ooooooooXXXXXXXXXXXXXXXXXXXXXXXXXXXX                    ",
"                        ooooooooXXXXXXXXXXXXXXXXXXXXXXXXXXXX                    ",
"                        ooooooooXXXXXXXXXXXXXXXXXXXXXXXXXXXX                    ",
"                        ooooooooXXXXXXXXXXXXXXXXXXXXXXXXXXXX                    ",
"                            XXXXXXXXXXXXXXXXOOOOOOOOXXXXOOOOXXXX                ",
"                            XXXXXXXXXXXXXXXXOOOOOOOOXXXXOOOOXXXX   O            ",
"                            XXXXXXXXXXXXXXXXOOOOOOOOXXXXOOOOXXXX                ",
"                            XXXXXXXXXXXXXXXXOOOOOOOOXXXXOOOOXXXX                ",
"                ooooooooooooXXXXXXXXXXXXOOOOOOOO    XXXX    OOOO                ",
"                ooooooooooooXXXXXXXXXXXXOOOOOOOO    XXXX    OOOO                ",
"                ooooooooooooXXXXXXXXXXXXOOOOOOOO    XXXX    OOOO                ",
"                ooooooooooooXXXXXXXXXXXXOOOOOOOO    XXXX    OOOO                ",
"                    ooooXXXXXXXXXXXXXXXXOOOOOOOO    XXXX    OOOO                ",
"                    ooooXXXXXXXXXXXXXXXXOOOOOOOO    XXXX    OOOO                ",
"                    ooooXXXXXXXXXXXXXXXXOOOOOOOO    XXXX    OOOO                ",
"                    ooooXXXXXXXXXXXXXXXXOOOOOOOO    XXXX    OOOO                ",
"                        XXXXXXXXooooooooOOOOOOOO    XXXX    OOOOXXXX            ",
"                        XXXXXXXXooooooooOOOOOOOO    XXXX    OOOOXXXX            ",
"                        XXXXXXXXooooooooOOOOOOOO    XXXX    OOOOXXXX            ",
"                        XXXXXXXXooooooooOOOOOOOO    XXXX    OOOOXXXX            ",
"                ooooooooXXXXooooooooooooOOOOOOOO    XXXX    OOOOoooo            ",
"                ooooooooXXXXooooooooooooOOOOOOOO    XXXX    OOOOoooo            ",
"                ooooooooXXXXooooooooooooOOOOOOOO    XXXX    OOOOoooo            ",
"                ooooooooXXXXooooooooooooOOOOOOOO    XXXX    OOOOoooo            ",
"                    ooooXXXXXXXX    ooooXXXXOOOOOOOOXXXXOOOOXXXXXXXX            ",
"                    ooooXXXXXXXX    ooooXXXXOOOOOOOOXXXXOOOOXXXXXXXX            ",
"                    ooooXXXXXXXX    ooooXXXXOOOOOOOOXXXXOOOOXXXXXXXX            ",
"                    ooooXXXXXXXX    ooooXXXXOOOOOOOOXXXXOOOOXXXXXXXX            ",
"                        XXXXXXXXXXXX                OOOO                        ",
"                        XXXXXXXXXXXX                OOOO                        ",
"                        XXXXXXXXXXXX                OOOO                        ",
"                        XXXXXXXXXXXX                OOOO                        ",
"                    XXXXXXXX........XXXXXXXXXXXXXXXXXXXXXXXXXXXX                ",
"                    XXXXXXXX........XXXXXXXXXXXXXXXXXXXXXXXXXXXX                ",
"                    XXXXXXXX........XXXXXXXXXXXXXXXXXXXXXXXXXXXX                ",
"                    XXXXXXXX........XXXXXXXXXXXXXXXXXXXXXXXXXXXX                ",
"                    XXXXXXXX............XXXXOOOOOOOOOOOOOOOO                    ",
"                    XXXXXXXX............XXXXOOOOOOOOOOOOOOOO                    ",
"                    XXXXXXXX............XXXXOOOOOOOOOOOOOOOO                    ",
"                    XXXXXXXX............XXXXOOOOOOOOOOOOOOOO                    ",
"                ooooXXXXXXXXXXXX........OOOOOOOOOOOOOOOOOOOOOOOO                ",
"                ooooXXXXXXXXXXXX........OOOOOOOOOOOOOOOOOOOOOOOO                ",
"                ooooXXXXXXXXXXXX........OOOOOOOOOOOOOOOOOOOOOOOO                ",
"                ooooXXXXXXXXXXXX........OOOOOOOOOOOOOOOOOOOOOOOO                ",
"            ooooXXXXXXXXXXXXXXXXXXXXXXXX........OOOOOOOOOOOOOOOO........        ",
"            ooooXXXXXXXXXXXXXXXXXXXXXXXX........OOOOOOOOOOOOOOOO........        ",
"            ooooXXXXXXXXXXXXXXXXXXXXXXXX........OOOOOOOOOOOOOOOO........        ",
"            ooooXXXXXXXXXXXXXXXXXXXXXXXX........OOOOOOOOOOOOOOOO........        ",
"        XXXXXXXXXXXXXXXXXXXXXXXXXXXX................OOOOOOOOOOOO....            ",
"        XXXXXXXXXXXXXXXXXXXXXXXXXXXX................OOOOOOOOOOOO....            ",
"        XXXXXXXXXXXXXXXXXXXXXXXXXXXX................OOOOOOOOOOOO....            ",
"        XXXXXXXXXXXXXXXXXXXXXXXXXXXX................OOOOOOOOOOOO....            ",
"                                                                                ",
"                                                                                ",
"                                                                                ",
"                                                                                ",
"                                                                                ",
"                                                                                ",
"                                                                                ",
"                                                                                "
};
