/* XPM */
static char *bubblun_L31690190660[] = {
/* columns rows colors chars-per-pixel */
"80 80 5 1 ",
"  c black",
". c #FF7878",
"X c green",
"o c yellow",
"O c white",
/* pixels */
"                                                                                ",
"                                                                                ",
"                                                                                ",
"                                                                                ",
"                                                                                ",
"                                                                                ",
"                                                                                ",
"                                                                                ",
"                                    oooo                                        ",
"                                    oooo                                        ",
"                                    oooo                                        ",
"                                    oooo                                        ",
"                                oooooooooooo                                    ",
"                                oooooooooooo                                    ",
"                        O       oooooooooooo                                    ",
"                                oooooooooooo                                    ",
"                        XXXXXXXXXXXXXXXXXXXXoooooooooooooooo                    ",
"                        XXXXXXXXXXXXXXXXXXXXoooooooooooooooo                    ",
"                        XXXXXXXXXXXXXXXXXXXXoooooooooooooooo                    ",
"                        XXXXXXXXXXXXXXXXXXXXoooooooooooooooo                    ",
"                    XXXXXXXXXXXXXXXXXXXXXXXXXXXXoooooooo                        ",
"                    XXXXXXXXXXXXXXXXXXXXXXXXXXXXoooooooo                        ",
"                    XXXXXXXXXXXXXXXXXXXXXXXXXXXXoooooooo                        ",
"                    XXXXXXXXXXXXXXXXXXXXXXXXXXXXoooooooo                        ",
"                XXXXOOOOXXXXOOOOOOOOXXXXXXXXXXXXXXXX                            ",
"                XXXXOOOOXXXXOOOOOOOOXXXXXXXXXXXXXXXX               O            ",
"                XXXXOOOOXXXXOOOOOOOOXXXXXXXXXXXXXXXX                            ",
"                XXXXOOOOXXXXOOOOOOOOXXXXXXXXXXXXXXXX                            ",
"                OOOO    XXXX    OOOOOOOOXXXXXXXXXXXXoooooooooooo                ",
"                OOOO    XXXX    OOOOOOOOXXXXXXXXXXXXoooooooooooo                ",
"                OOOO    XXXX    OOOOOOOOXXXXXXXXXXXXoooooooooooo                ",
"                OOOO    XXXX    OOOOOOOOXXXXXXXXXXXXoooooooooooo                ",
"                OOOO    XXXX    OOOOOOOOXXXXXXXXXXXXXXXXoooo                    ",
"                OOOO    XXXX    OOOOOOOOXXXXXXXXXXXXXXXXoooo                    ",
"                OOOO    XXXX    OOOOOOOOXXXXXXXXXXXXXXXXoooo                    ",
"                OOOO    XXXX    OOOOOOOOXXXXXXXXXXXXXXXXoooo                    ",
"            XXXXOOOO    XXXX    OOOOOOOOooooooooXXXXXXXX                        ",
"            XXXXOOOO    XXXX    OOOOOOOOooooooooXXXXXXXX                        ",
"            XXXXOOOO    XXXX    OOOOOOOOooooooooXXXXXXXX                        ",
"            XXXXOOOO    XXXX    OOOOOOOOooooooooXXXXXXXX                        ",
"            ooooOOOO    XXXX    OOOOOOOOooooooooooooXXXXoooooooo                ",
"            ooooOOOO    XXXX    OOOOOOOOooooooooooooXXXXoooooooo                ",
"            ooooOOOO    XXXX    OOOOOOOOooooooooooooXXXXoooooooo                ",
"            ooooOOOO    XXXX    OOOOOOOOooooooooooooXXXXoooooooo                ",
"            XXXXXXXXOOOOXXXXOOOOOOOOXXXXoooo    XXXXXXXXoooo                    ",
"            XXXXXXXXOOOOXXXXOOOOOOOOXXXXoooo    XXXXXXXXoooo                    ",
"            XXXXXXXXOOOOXXXXOOOOOOOOXXXXoooo    XXXXXXXXoooo                    ",
"            XXXXXXXXOOOOXXXXOOOOOOOOXXXXoooo    XXXXXXXXoooo                    ",
"                        OOOO                XXXXXXXXXXXX                        ",
"                        OOOO                XXXXXXXXXXXX                        ",
"                        OOOO                XXXXXXXXXXXX                        ",
"                        OOOO                XXXXXXXXXXXX                        ",
"                XXXXXXXXXXXXXXXXXXXXXXXXXXXXXXXX........XXXX                    ",
"                XXXXXXXXXXXXXXXXXXXXXXXXXXXXXXXX........XXXX                    ",
"                XXXXXXXXXXXXXXXXXXXXXXXXXXXXXXXX........XXXX                    ",
"                XXXXXXXXXXXXXXXXXXXXXXXXXXXXXXXX........XXXX                    ",
"                    OOOOOOOOOOOOOOOOXXXXXXXX................                    ",
"                    OOOOOOOOOOOOOOOOXXXXXXXX................                    ",
"                    OOOOOOOOOOOOOOOOXXXXXXXX................O                   ",
"                    OOOOOOOOOOOOOOOOXXXXXXXX................                    ",
"                OOOOOOOOOOOOOOOOOOOOOOOOXXXXXXXX............oooo    XXXX        ",
"                OOOOOOOOOOOOOOOOOOOOOOOOXXXXXXXX............oooo    XXXX        ",
"                OOOOOOOOOOOOOOOOOOOOOOOOXXXXXXXX............oooo    XXXX        ",
"                OOOOOOOOOOOOOOOOOOOOOOOOXXXXXXXX............oooo    XXXX        ",
"                OOOOOOOOOOOO............XXXXXXXXXXXXXXXXXXXXXXXXooooXXXX        ",
"                OOOOOOOOOOOO............XXXXXXXXXXXXXXXXXXXXXXXXooooXXXX        ",
"                OOOOOOOOOOOO............XXXXXXXXXXXXXXXXXXXXXXXXooooXXXX        ",
"                OOOOOOOOOOOO............XXXXXXXXXXXXXXXXXXXXXXXXooooXXXX        ",
"            O   OOOOOOOO....................XXXXXXXXXXXXXXXXXXXXXXXX            ",
"                OOOOOOOO....................XXXXXXXXXXXXXXXXXXXXXXXX            ",
"                OOOOOOOO....................XXXXXXXXXXXXXXXXXXXXXXXX            ",
"                OOOOOOOO....................XXXXXXXXXXXXXXXXXXXXXXXX            ",
"                                                                                ",
"                                                                                ",
"                                                                                ",
"                                                                                ",
"                                                                                ",
"                                                                                ",
"                                                                                ",
"                                                                                "
};
