/* XPM */
static char *result[] = {
/* columns rows colors chars-per-pixel */
"80 80 4 1 ",
"  c red",
". c green",
"X c white",
"o c None",
/* pixels */
"oooooooooooooooooooooooooooooooooooooooooooooooooooooooooooooooooooooooooooooooo",
"oooooooooooooooooooooooooooooooooooooooooooooooooooooooooooooooooooooooooooooooo",
"oooooooooooooooooooooooooooooooooooooooooooooooooooooooooooooooooooooooooooooooo",
"oooooooooooooooooooooooooooooooooooooooooooooooooooooooooooooooooooooooooooooooo",
"oooooooooooooooooooooooooooooooooooooooooooooooooooooooooooooooooooooooooooooooo",
"oooooooooooooooooooooooooooooooooooooooooooooooooooooooooooooooooooooooooooooooo",
"oooooooooooooooooooooooooooooooooooooooooooooooooooooooooooooooooooooooooooooooo",
"oooooooooooooooooooooooooooooooooooooooooooooooooooooooooooooooooooooooooooooooo",
"oooooooooooooooooooooooooooooooooooooooooooooooooooooooooooooooooooooooooooooooo",
"oooooooooooooooooooooooooooooooooooooooooooooooooooooooooooooooooooooooooooooooo",
"oooooooooooooooooooooooooooooooooooooooooooooooooooooooooooooooooooooooooooooooo",
"oooooooooooooooooooooooooooooooooooooooooooooooooooooooooooooooooooooooooooooooo",
"oooooooooooooooooooooooooooooooooooooooooooooooooooooooooooooooooooooooooooooooo",
"oooooooooooooooooooooooooooooooooooooooooooooooooooooooooooooooooooooooooooooooo",
"oooooooooooooooooooooooooooooooooooooooooooooooooooooooooooooooooooooooooooooooo",
"oooooooooooooooooooooooooooooooooooooooooooooooooooooooooooooooooooooooooooooooo",
"oooooooooooooooooooooooooooooooooooooooo....oooooooooooooooooooooooooooooooooooo",
"oooooooooooooooooooooooooooooooooooooooo....oooooooooooooooooooooooooooooooooooo",
"oooooooooooooooooooooooooooooooooooooooo....oooooooooooooooooooooooooooooooooooo",
"oooooooooooooooooooooooooooooooooooooooo....oooooooooooooooooooooooooooooooooooo",
"oooooooooooooooooooooooooooooooooooooooo....oooooooooooooooooooooooooooooooooooo",
"oooooooooooooooooooooooooooooooooooooooo....oooooooooooooooooooooooooooooooooooo",
"oooooooooooooooooooooooooooooooooooooooo....oooooooooooooooooooooooooooooooooooo",
"oooooooooooooooooooooooooooooooooooooooo....oooooooooooooooooooooooooooooooooooo",
"oooooooooooooooooooooooooooooooooooooooo....oooooooooooooooooooooooooooooooooooo",
"oooooooooooooooooooooooooooooooooooooooo....oooooooooooooooooooooooooooooooooooo",
"oooooooooooooooooooooooooooooooooooooooo....oooooooooooooooooooooooooooooooooooo",
"oooooooooooooooooooooooooooooooooooooooo....oooooooooooooooooooooooooooooooooooo",
"oooooooooooooooooooooooooooooooooooo....oooo....oooooooooooooooooooooooooooooooo",
"oooooooooooooooooooooooooooooooooooo....oooo....oooooooooooooooooooooooooooooooo",
"oooooooooooooooooooooooooooooooooooo....oooo....oooooooooooooooooooooooooooooooo",
"oooooooooooooooooooooooooooooooooooo....oooo....oooooooooooooooooooooooooooooooo",
"oooooooooooooooooooooooooooooooooooo....oooo....oooooooooooooooooooooooooooooooo",
"oooooooooooooooooooooooooooooooooooo....oooo....oooooooooooooooooooooooooooooooo",
"oooooooooooooooooooooooooooooooooooo....oooo....oooooooooooooooooooooooooooooooo",
"oooooooooooooooooooooooooooooooooooo....oooo....oooooooooooooooooooooooooooooooo",
"oooooooooooooooooooooooooooooooo....oooooooooooo....oooooooooooooooooooooooooooo",
"oooooooooooooooooooooooooooooooo....oooooooooooo....oooooooooooooooooooooooooooo",
"oooooooooooooooooooooooooooooooo....oooooooooooo....oooooooooooooooooooooooooooo",
"oooooooooooooooooooooooooooooooo....oooooooooooo....oooooooooooooooooooooooooooo",
"oooooooooooooooooooo            oooooooooooooooo            oooooooooooooooooooo",
"oooooooooooooooooooo            oooooooooooooooo            oooooooooooooooooooo",
"oooooooooooooooooooo            oooooooooooooooo            oooooooooooooooooooo",
"oooooooooooooooooooo            oooooooooooooooo            oooooooooooooooooooo",
"oooooooooooooooo    XXXX            oooooooo    XXXX            oooooooooooooooo",
"oooooooooooooooo    XXXX            oooooooo    XXXX            oooooooooooooooo",
"oooooooooooooooo    XXXX            oooooooo    XXXX            oooooooooooooooo",
"oooooooooooooooo    XXXX            oooooooo    XXXX            oooooooooooooooo",
"oooooooooooooooo    XXXX            oooooooo    XXXX            oooooooooooooooo",
"oooooooooooooooo    XXXX            oooooooo    XXXX            oooooooooooooooo",
"oooooooooooooooo    XXXX            oooooooo    XXXX            oooooooooooooooo",
"oooooooooooooooo    XXXX            oooooooo    XXXX            oooooooooooooooo",
"oooooooooooooooo                    oooooooo                    oooooooooooooooo",
"oooooooooooooooo                    oooooooo                    oooooooooooooooo",
"oooooooooooooooo                    oooooooo                    oooooooooooooooo",
"oooooooooooooooo                    oooooooo                    oooooooooooooooo",
"oooooooooooooooo                    oooooooo                    oooooooooooooooo",
"oooooooooooooooo                    oooooooo                    oooooooooooooooo",
"oooooooooooooooo                    oooooooo                    oooooooooooooooo",
"oooooooooooooooo                    oooooooo                    oooooooooooooooo",
"oooooooooooooooooooo            oooooooooooooooo            oooooooooooooooooooo",
"oooooooooooooooooooo            oooooooooooooooo            oooooooooooooooooooo",
"oooooooooooooooooooo            oooooooooooooooo            oooooooooooooooooooo",
"oooooooooooooooooooo            oooooooooooooooo            oooooooooooooooooooo",
"oooooooooooooooooooooooooooooooooooooooooooooooooooooooooooooooooooooooooooooooo",
"oooooooooooooooooooooooooooooooooooooooooooooooooooooooooooooooooooooooooooooooo",
"oooooooooooooooooooooooooooooooooooooooooooooooooooooooooooooooooooooooooooooooo",
"oooooooooooooooooooooooooooooooooooooooooooooooooooooooooooooooooooooooooooooooo",
"oooooooooooooooooooooooooooooooooooooooooooooooooooooooooooooooooooooooooooooooo",
"oooooooooooooooooooooooooooooooooooooooooooooooooooooooooooooooooooooooooooooooo",
"oooooooooooooooooooooooooooooooooooooooooooooooooooooooooooooooooooooooooooooooo",
"oooooooooooooooooooooooooooooooooooooooooooooooooooooooooooooooooooooooooooooooo",
"oooooooooooooooooooooooooooooooooooooooooooooooooooooooooooooooooooooooooooooooo",
"oooooooooooooooooooooooooooooooooooooooooooooooooooooooooooooooooooooooooooooooo",
"oooooooooooooooooooooooooooooooooooooooooooooooooooooooooooooooooooooooooooooooo",
"oooooooooooooooooooooooooooooooooooooooooooooooooooooooooooooooooooooooooooooooo",
"oooooooooooooooooooooooooooooooooooooooooooooooooooooooooooooooooooooooooooooooo",
"oooooooooooooooooooooooooooooooooooooooooooooooooooooooooooooooooooooooooooooooo",
"oooooooooooooooooooooooooooooooooooooooooooooooooooooooooooooooooooooooooooooooo",
"oooooooooooooooooooooooooooooooooooooooooooooooooooooooooooooooooooooooooooooooo"
};
