/* XPM */
static char *result[] = {
/* columns rows colors chars-per-pixel */
"80 80 4 1 ",
"  c #505050",
". c #959595",
"X c white",
"o c None",
/* pixels */
"oooooooooooooooooooooooooooooooooooooooooooooooooooooooooooooooooooooooooooooooo",
"oooooooooooooooooooooooooooooooooooooooooooooooooooooooooooooooooooooooooooooooo",
"oooooooooooooooooooooooooooooooooooooooooooooooooooooooooooooooooooooooooooooooo",
"oooooooooooooooooooooooooooooooooooooooooooooooooooooooooooooooooooooooooooooooo",
"oooooooooooooooooooooooooooooooooooooooooooooooooooooooooooooooooooooooooooooooo",
"oooooooooooooooooooooooooooooooooooooooooooooooooooooooooooooooooooooooooooooooo",
"oooooooooooooooooooooooooooooooooooooooooooooooooooooooooooooooooooooooooooooooo",
"oooooooooooooooooooooooooooooooooooooooooooooooooooooooooooooooooooooooooooooooo",
"oooooooooooooooooooooooooooooooo                oooooooooooooooooooooooooooooooo",
"oooooooooooooooooooooooooooooooo                oooooooooooooooooooooooooooooooo",
"oooooooooooooooooooooooooooooooo                oooooooooooooooooooooooooooooooo",
"oooooooooooooooooooooooooooooooo                oooooooooooooooooooooooooooooooo",
"oooooooooooooooooooooooo        ................        oooooooooooooooooooooooo",
"oooooooooooooooooooooooo        ................        oooooooooooooooooooooooo",
"oooooooooooooooooooooooo        ................        oooooooooooooooooooooooo",
"oooooooooooooooooooooooo        ................        oooooooooooooooooooooooo",
"oooooooooooooooooooo    ................................    oooooooooooooooooooo",
"oooooooooooooooooooo    ................................    oooooooooooooooooooo",
"oooooooooooooooooooo    ................................    oooooooooooooooooooo",
"oooooooooooooooooooo    ................................    oooooooooooooooooooo",
"oooooooooooooooooooo    XXXXXXXX........................    oooooooooooooooooooo",
"oooooooooooooooooooo    XXXXXXXX........................    oooooooooooooooooooo",
"oooooooooooooooooooo    XXXXXXXX........................    oooooooooooooooooooo",
"oooooooooooooooooooo    XXXXXXXX........................    oooooooooooooooooooo",
"oooooooooooooooo    ....XXXXXXXX............................    oooooooooooooooo",
"oooooooooooooooo    ....XXXXXXXX............................    oooooooooooooooo",
"oooooooooooooooo    ....XXXXXXXX............................    oooooooooooooooo",
"oooooooooooooooo    ....XXXXXXXX............................    oooooooooooooooo",
"oooooooooooooooo    ........oooooooooooooooooooooooooooo....    oooooooooooooooo",
"oooooooooooooooo    ........oooooooooooooooooooooooooooo....    oooooooooooooooo",
"oooooooooooooooo    ........oooooooooooooooooooooooooooo....    oooooooooooooooo",
"oooooooooooooooo    ........oooooooooooooooooooooooooooo....    oooooooooooooooo",
"oooooooooooo    ............oooooooo............................    oooooooooooo",
"oooooooooooo    ............oooooooo............................    oooooooooooo",
"oooooooooooo    ............oooooooo............................    oooooooooooo",
"oooooooooooo    ............oooooooo............................    oooooooooooo",
"oooooooooooo    ............oooooooo............................    oooooooooooo",
"oooooooooooo    ............oooooooo............................    oooooooooooo",
"oooooooooooo    ............oooooooo............................    oooooooooooo",
"oooooooooooo    ............oooooooo............................    oooooooooooo",
"oooooooooooo    ............oooooooooooooooooooooooo............    oooooooooooo",
"oooooooooooo    ............oooooooooooooooooooooooo............    oooooooooooo",
"oooooooooooo    ............oooooooooooooooooooooooo............    oooooooooooo",
"oooooooooooo    ............oooooooooooooooooooooooo............    oooooooooooo",
"oooooooooooo    ............oooooooo............................    oooooooooooo",
"oooooooooooo    ............oooooooo............................    oooooooooooo",
"oooooooooooo    ............oooooooo............................    oooooooooooo",
"oooooooooooo    ............oooooooo............................    oooooooooooo",
"oooooooooooooooo    ........oooooooo........................    oooooooooooooooo",
"oooooooooooooooo    ........oooooooo........................    oooooooooooooooo",
"oooooooooooooooo    ........oooooooo........................    oooooooooooooooo",
"oooooooooooooooo    ........oooooooo........................    oooooooooooooooo",
"oooooooooooooooo    ........oooooooooooooooooooooooooooo....    oooooooooooooooo",
"oooooooooooooooo    ........oooooooooooooooooooooooooooo....    oooooooooooooooo",
"oooooooooooooooo    ........oooooooooooooooooooooooooooo....    oooooooooooooooo",
"oooooooooooooooo    ........oooooooooooooooooooooooooooo....    oooooooooooooooo",
"oooooooooooooooooooo    ................................    oooooooooooooooooooo",
"oooooooooooooooooooo    ................................    oooooooooooooooooooo",
"oooooooooooooooooooo    ................................    oooooooooooooooooooo",
"oooooooooooooooooooo    ................................    oooooooooooooooooooo",
"oooooooooooooooooooo    ................................    oooooooooooooooooooo",
"oooooooooooooooooooo    ................................    oooooooooooooooooooo",
"oooooooooooooooooooo    ................................    oooooooooooooooooooo",
"oooooooooooooooooooo    ................................    oooooooooooooooooooo",
"oooooooooooooooooooooooo        ................        oooooooooooooooooooooooo",
"oooooooooooooooooooooooo        ................        oooooooooooooooooooooooo",
"oooooooooooooooooooooooo        ................        oooooooooooooooooooooooo",
"oooooooooooooooooooooooo        ................        oooooooooooooooooooooooo",
"oooooooooooooooooooooooooooooooo                oooooooooooooooooooooooooooooooo",
"oooooooooooooooooooooooooooooooo                oooooooooooooooooooooooooooooooo",
"oooooooooooooooooooooooooooooooo                oooooooooooooooooooooooooooooooo",
"oooooooooooooooooooooooooooooooo                oooooooooooooooooooooooooooooooo",
"oooooooooooooooooooooooooooooooooooooooooooooooooooooooooooooooooooooooooooooooo",
"oooooooooooooooooooooooooooooooooooooooooooooooooooooooooooooooooooooooooooooooo",
"oooooooooooooooooooooooooooooooooooooooooooooooooooooooooooooooooooooooooooooooo",
"oooooooooooooooooooooooooooooooooooooooooooooooooooooooooooooooooooooooooooooooo",
"oooooooooooooooooooooooooooooooooooooooooooooooooooooooooooooooooooooooooooooooo",
"oooooooooooooooooooooooooooooooooooooooooooooooooooooooooooooooooooooooooooooooo",
"oooooooooooooooooooooooooooooooooooooooooooooooooooooooooooooooooooooooooooooooo",
"oooooooooooooooooooooooooooooooooooooooooooooooooooooooooooooooooooooooooooooooo"
};
