/* XPM */
static char *result[] = {
/* columns rows colors chars-per-pixel */
"80 80 5 1 ",
"  c black",
". c #00AA00",
"X c green",
"o c white",
"O c None",
/* pixels */
"OOOOOOOOOOOOOOOOOOOOOOOOOOOOOOOOOOOOOOOOOOOOOOOOOOOOOOOOOOOOOOOOOOOOOOOOOOOOOOOO",
"OOOOOOOOOOOOOOOOOOOOOOOOOOOOOOOOOOOOOOOOOOOOOOOOOOOOOOOOOOOOOOOOOOOOOOOOOOOOOOOO",
"OOOOOOOOOOOOOOOOOOOOOOOOOOOOOOOOOOOOOOOOOOOOOOOOOOOOOOOOOOOOOOOOOOOOOOOOOOOOOOOO",
"OOOOOOOOOOOOOOOOOOOOOOOOOOOOOOOOOOOOOOOOOOOOOOOOOOOOOOOOOOOOOOOOOOOOOOOOOOOOOOOO",
"OOOOOOOOOOOOOOOOOOOOOOOOOOOOOOOOOOOOOOOOOOOOOOOOOOOOOOOOOOOOOOOOOOOOOOOOOOOOOOOO",
"OOOOOOOOOOOOOOOOOOOOOOOOOOOOOOOOOOOOOOOOOOOOOOOOOOOOOOOOOOOOOOOOOOOOOOOOOOOOOOOO",
"OOOOOOOOOOOOOOOOOOOOOOOOOOOOOOOOOOOOOOOOOOOOOOOOOOOOOOOOOOOOOOOOOOOOOOOOOOOOOOOO",
"OOOOOOOOOOOOOOOOOOOOOOOOOOOOOOOOOOOOOOOOOOOOOOOOOOOOOOOOOOOOOOOOOOOOOOOOOOOOOOOO",
"OOOOOOOOOOOOOOOOOOOOOOOOOOOOOOOO................OOOOOOOOOOOOOOOOOOOOOOOOOOOOOOOO",
"OOOOOOOOOOOOOOOOOOOOOOOOOOOOOOOO................OOOOOOOOOOOOOOOOOOOOOOOOOOOOOOOO",
"OOOOOOOOOOOOOOOOOOOOOOOOOOOOOOOO................OOOOOOOOOOOOOOOOOOOOOOOOOOOOOOOO",
"OOOOOOOOOOOOOOOOOOOOOOOOOOOOOOOO................OOOOOOOOOOOOOOOOOOOOOOOOOOOOOOOO",
"OOOOOOOOOOOOOOOOOOOOOOOO........XXXXXXXXXXXXXXXX........OOOOOOOOOOOOOOOOOOOOOOOO",
"OOOOOOOOOOOOOOOOOOOOOOOO........XXXXXXXXXXXXXXXX........OOOOOOOOOOOOOOOOOOOOOOOO",
"OOOOOOOOOOOOOOOOOOOOOOOO........XXXXXXXXXXXXXXXX........OOOOOOOOOOOOOOOOOOOOOOOO",
"OOOOOOOOOOOOOOOOOOOOOOOO........XXXXXXXXXXXXXXXX........OOOOOOOOOOOOOOOOOOOOOOOO",
"OOOOOOOOOOOOOOOOOOOO....XXXXXXXXXXXXXXXXXXXXXXXXXXXXXXXX....OOOOOOOOOOOOOOOOOOOO",
"OOOOOOOOOOOOOOOOOOOO....XXXXXXXXXXXXXXXXXXXXXXXXXXXXXXXX....OOOOOOOOOOOOOOOOOOOO",
"OOOOOOOOOOOOOOOOOOOO....XXXXXXXXXXXXXXXXXXXXXXXXXXXXXXXX....OOOOOOOOOOOOOOOOOOOO",
"OOOOOOOOOOOOOOOOOOOO....XXXXXXXXXXXXXXXXXXXXXXXXXXXXXXXX....OOOOOOOOOOOOOOOOOOOO",
"OOOOOOOOOOOOOOOOOOOO....ooooooooXXXXXXXXXXXXXXXXXXXXXXXX....OOOOOOOOOOOOOOOOOOOO",
"OOOOOOOOOOOOOOOOOOOO....ooooooooXXXXXXXXXXXXXXXXXXXXXXXX....OOOOOOOOOOOOOOOOOOOO",
"OOOOOOOOOOOOOOOOOOOO....ooooooooXXXXXXXXXXXXXXXXXXXXXXXX....OOOOOOOOOOOOOOOOOOOO",
"OOOOOOOOOOOOOOOOOOOO....ooooooooXXXXXXXXXXXXXXXXXXXXXXXX....OOOOOOOOOOOOOOOOOOOO",
"OOOOOOOOOOOOOOOO....XXXXooooooooXXXXXXXXXXXXXXXXXXXXXXXXXXXX....OOOOOOOOOOOOOOOO",
"OOOOOOOOOOOOOOOO....XXXXooooooooXXXXXXXXXXXXXXXXXXXXXXXXXXXX....OOOOOOOOOOOOOOOO",
"OOOOOOOOOOOOOOOO....XXXXooooooooXXXXXXXXXXXXXXXXXXXXXXXXXXXX....OOOOOOOOOOOOOOOO",
"OOOOOOOOOOOOOOOO....XXXXooooooooXXXXXXXXXXXXXXXXXXXXXXXXXXXX....OOOOOOOOOOOOOOOO",
"OOOOOOOOOOOOOOOO....XXXXXXXX                            XXXX....OOOOOOOOOOOOOOOO",
"OOOOOOOOOOOOOOOO....XXXXXXXX                            XXXX....OOOOOOOOOOOOOOOO",
"OOOOOOOOOOOOOOOO....XXXXXXXX                            XXXX....OOOOOOOOOOOOOOOO",
"OOOOOOOOOOOOOOOO....XXXXXXXX                            XXXX....OOOOOOOOOOOOOOOO",
"OOOOOOOOOOOO....XXXXXXXXXXXX        XXXXXXXXXXXXXXXXXXXXXXXXXXXX....OOOOOOOOOOOO",
"OOOOOOOOOOOO....XXXXXXXXXXXX        XXXXXXXXXXXXXXXXXXXXXXXXXXXX....OOOOOOOOOOOO",
"OOOOOOOOOOOO....XXXXXXXXXXXX        XXXXXXXXXXXXXXXXXXXXXXXXXXXX....OOOOOOOOOOOO",
"OOOOOOOOOOOO....XXXXXXXXXXXX        XXXXXXXXXXXXXXXXXXXXXXXXXXXX....OOOOOOOOOOOO",
"OOOOOOOOOOOO....XXXXXXXXXXXX        XXXXXXXXXXXXXXXXXXXXXXXXXXXX....OOOOOOOOOOOO",
"OOOOOOOOOOOO....XXXXXXXXXXXX        XXXXXXXXXXXXXXXXXXXXXXXXXXXX....OOOOOOOOOOOO",
"OOOOOOOOOOOO....XXXXXXXXXXXX        XXXXXXXXXXXXXXXXXXXXXXXXXXXX....OOOOOOOOOOOO",
"OOOOOOOOOOOO....XXXXXXXXXXXX        XXXXXXXXXXXXXXXXXXXXXXXXXXXX....OOOOOOOOOOOO",
"OOOOOOOOOOOO....XXXXXXXXXXXX                        XXXXXXXXXXXX....OOOOOOOOOOOO",
"OOOOOOOOOOOO....XXXXXXXXXXXX                        XXXXXXXXXXXX....OOOOOOOOOOOO",
"OOOOOOOOOOOO....XXXXXXXXXXXX                        XXXXXXXXXXXX....OOOOOOOOOOOO",
"OOOOOOOOOOOO....XXXXXXXXXXXX                        XXXXXXXXXXXX....OOOOOOOOOOOO",
"OOOOOOOOOOOO....XXXXXXXXXXXX        XXXXXXXXXXXXXXXXXXXXXXXXXXXX....OOOOOOOOOOOO",
"OOOOOOOOOOOO....XXXXXXXXXXXX        XXXXXXXXXXXXXXXXXXXXXXXXXXXX....OOOOOOOOOOOO",
"OOOOOOOOOOOO....XXXXXXXXXXXX        XXXXXXXXXXXXXXXXXXXXXXXXXXXX....OOOOOOOOOOOO",
"OOOOOOOOOOOO....XXXXXXXXXXXX        XXXXXXXXXXXXXXXXXXXXXXXXXXXX....OOOOOOOOOOOO",
"OOOOOOOOOOOOOOOO....XXXXXXXX        XXXXXXXXXXXXXXXXXXXXXXXX....OOOOOOOOOOOOOOOO",
"OOOOOOOOOOOOOOOO....XXXXXXXX        XXXXXXXXXXXXXXXXXXXXXXXX....OOOOOOOOOOOOOOOO",
"OOOOOOOOOOOOOOOO....XXXXXXXX        XXXXXXXXXXXXXXXXXXXXXXXX....OOOOOOOOOOOOOOOO",
"OOOOOOOOOOOOOOOO....XXXXXXXX        XXXXXXXXXXXXXXXXXXXXXXXX....OOOOOOOOOOOOOOOO",
"OOOOOOOOOOOOOOOO....XXXXXXXX                            XXXX....OOOOOOOOOOOOOOOO",
"OOOOOOOOOOOOOOOO....XXXXXXXX                            XXXX....OOOOOOOOOOOOOOOO",
"OOOOOOOOOOOOOOOO....XXXXXXXX                            XXXX....OOOOOOOOOOOOOOOO",
"OOOOOOOOOOOOOOOO....XXXXXXXX                            XXXX....OOOOOOOOOOOOOOOO",
"OOOOOOOOOOOOOOOOOOOO....XXXXXXXXXXXXXXXXXXXXXXXXXXXXXXXX....OOOOOOOOOOOOOOOOOOOO",
"OOOOOOOOOOOOOOOOOOOO....XXXXXXXXXXXXXXXXXXXXXXXXXXXXXXXX....OOOOOOOOOOOOOOOOOOOO",
"OOOOOOOOOOOOOOOOOOOO....XXXXXXXXXXXXXXXXXXXXXXXXXXXXXXXX....OOOOOOOOOOOOOOOOOOOO",
"OOOOOOOOOOOOOOOOOOOO....XXXXXXXXXXXXXXXXXXXXXXXXXXXXXXXX....OOOOOOOOOOOOOOOOOOOO",
"OOOOOOOOOOOOOOOOOOOO....XXXXXXXXXXXXXXXXXXXXXXXXXXXXXXXX....OOOOOOOOOOOOOOOOOOOO",
"OOOOOOOOOOOOOOOOOOOO....XXXXXXXXXXXXXXXXXXXXXXXXXXXXXXXX....OOOOOOOOOOOOOOOOOOOO",
"OOOOOOOOOOOOOOOOOOOO....XXXXXXXXXXXXXXXXXXXXXXXXXXXXXXXX....OOOOOOOOOOOOOOOOOOOO",
"OOOOOOOOOOOOOOOOOOOO....XXXXXXXXXXXXXXXXXXXXXXXXXXXXXXXX....OOOOOOOOOOOOOOOOOOOO",
"OOOOOOOOOOOOOOOOOOOOOOOO........XXXXXXXXXXXXXXXX........OOOOOOOOOOOOOOOOOOOOOOOO",
"OOOOOOOOOOOOOOOOOOOOOOOO........XXXXXXXXXXXXXXXX........OOOOOOOOOOOOOOOOOOOOOOOO",
"OOOOOOOOOOOOOOOOOOOOOOOO........XXXXXXXXXXXXXXXX........OOOOOOOOOOOOOOOOOOOOOOOO",
"OOOOOOOOOOOOOOOOOOOOOOOO........XXXXXXXXXXXXXXXX........OOOOOOOOOOOOOOOOOOOOOOOO",
"OOOOOOOOOOOOOOOOOOOOOOOOOOOOOOOO................OOOOOOOOOOOOOOOOOOOOOOOOOOOOOOOO",
"OOOOOOOOOOOOOOOOOOOOOOOOOOOOOOOO................OOOOOOOOOOOOOOOOOOOOOOOOOOOOOOOO",
"OOOOOOOOOOOOOOOOOOOOOOOOOOOOOOOO................OOOOOOOOOOOOOOOOOOOOOOOOOOOOOOOO",
"OOOOOOOOOOOOOOOOOOOOOOOOOOOOOOOO................OOOOOOOOOOOOOOOOOOOOOOOOOOOOOOOO",
"OOOOOOOOOOOOOOOOOOOOOOOOOOOOOOOOOOOOOOOOOOOOOOOOOOOOOOOOOOOOOOOOOOOOOOOOOOOOOOOO",
"OOOOOOOOOOOOOOOOOOOOOOOOOOOOOOOOOOOOOOOOOOOOOOOOOOOOOOOOOOOOOOOOOOOOOOOOOOOOOOOO",
"OOOOOOOOOOOOOOOOOOOOOOOOOOOOOOOOOOOOOOOOOOOOOOOOOOOOOOOOOOOOOOOOOOOOOOOOOOOOOOOO",
"OOOOOOOOOOOOOOOOOOOOOOOOOOOOOOOOOOOOOOOOOOOOOOOOOOOOOOOOOOOOOOOOOOOOOOOOOOOOOOOO",
"OOOOOOOOOOOOOOOOOOOOOOOOOOOOOOOOOOOOOOOOOOOOOOOOOOOOOOOOOOOOOOOOOOOOOOOOOOOOOOOO",
"OOOOOOOOOOOOOOOOOOOOOOOOOOOOOOOOOOOOOOOOOOOOOOOOOOOOOOOOOOOOOOOOOOOOOOOOOOOOOOOO",
"OOOOOOOOOOOOOOOOOOOOOOOOOOOOOOOOOOOOOOOOOOOOOOOOOOOOOOOOOOOOOOOOOOOOOOOOOOOOOOOO",
"OOOOOOOOOOOOOOOOOOOOOOOOOOOOOOOOOOOOOOOOOOOOOOOOOOOOOOOOOOOOOOOOOOOOOOOOOOOOOOOO"
};
