/* XPM */
static char *result[] = {
/* columns rows colors chars-per-pixel */
"80 80 3 1 ",
"  c #FF0067",
". c #FFA600",
"X c yellow",
/* pixels */
"XXXXXXXXXXXXXXXXXXXX                                        XXXXXXXXXXXXXXXXXXXX",
"XXXXXXXXXXXXXXXXXXXX                                        XXXXXXXXXXXXXXXXXXXX",
"XXXXXXXXXXXXXXXXXXXX                                        XXXXXXXXXXXXXXXXXXXX",
"XXXXXXXXXXXXXXXXXXXX                                        XXXXXXXXXXXXXXXXXXXX",
"XXXXXXXXXXXXXXXXXXXX                                        XXXXXXXXXXXXXXXXXXXX",
"XXXXXXXXXXXXXXXXXXXX                                        XXXXXXXXXXXXXXXXXXXX",
"XXXXXXXXXXXXXXXXXXXX                                        XXXXXXXXXXXXXXXXXXXX",
"XXXXXXXXXXXXXXXXXXXX                                        XXXXXXXXXXXXXXXXXXXX",
"XXXXXXXXXXXXXXXXXXXX                                        XXXXXXXXXXXXXXXXXXXX",
"XXXXXXXXXXXXXXXXXXXX                                        XXXXXXXXXXXXXXXXXXXX",
"XXXXXXXXXX....................                    ....................XXXXXXXXXX",
"XXXXXXXXXX....................                    ....................XXXXXXXXXX",
"XXXXXXXXXX....................                    ....................XXXXXXXXXX",
"XXXXXXXXXX....................                    ....................XXXXXXXXXX",
"XXXXXXXXXX....................                    ....................XXXXXXXXXX",
"XXXXXXXXXX....................                    ....................XXXXXXXXXX",
"XXXXXXXXXX....................                    ....................XXXXXXXXXX",
"XXXXXXXXXX....................                    ....................XXXXXXXXXX",
"XXXXXXXXXX....................                    ....................XXXXXXXXXX",
"XXXXXXXXXX....................                    ....................XXXXXXXXXX",
"................................................................................",
"................................................................................",
"................................................................................",
"................................................................................",
"................................................................................",
"................................................................................",
"................................................................................",
"................................................................................",
"................................................................................",
"................................................................................",
"          ....................XXXXXXXXXXXXXXXXXXXX....................          ",
"          ....................XXXXXXXXXXXXXXXXXXXX....................          ",
"          ....................XXXXXXXXXXXXXXXXXXXX....................          ",
"          ....................XXXXXXXXXXXXXXXXXXXX....................          ",
"          ....................XXXXXXXXXXXXXXXXXXXX....................          ",
"          ....................XXXXXXXXXXXXXXXXXXXX....................          ",
"          ....................XXXXXXXXXXXXXXXXXXXX....................          ",
"          ....................XXXXXXXXXXXXXXXXXXXX....................          ",
"          ....................XXXXXXXXXXXXXXXXXXXX....................          ",
"          ....................XXXXXXXXXXXXXXXXXXXX....................          ",
"                    XXXXXXXXXXXXXXXXXXXXXXXXXXXXXXXXXXXXXXXX                    ",
"                    XXXXXXXXXXXXXXXXXXXXXXXXXXXXXXXXXXXXXXXX                    ",
"                    XXXXXXXXXXXXXXXXXXXXXXXXXXXXXXXXXXXXXXXX                    ",
"                    XXXXXXXXXXXXXXXXXXXXXXXXXXXXXXXXXXXXXXXX                    ",
"                    XXXXXXXXXXXXXXXXXXXXXXXXXXXXXXXXXXXXXXXX                    ",
"                    XXXXXXXXXXXXXXXXXXXXXXXXXXXXXXXXXXXXXXXX                    ",
"                    XXXXXXXXXXXXXXXXXXXXXXXXXXXXXXXXXXXXXXXX                    ",
"                    XXXXXXXXXXXXXXXXXXXXXXXXXXXXXXXXXXXXXXXX                    ",
"                    XXXXXXXXXXXXXXXXXXXXXXXXXXXXXXXXXXXXXXXX                    ",
"                    XXXXXXXXXXXXXXXXXXXXXXXXXXXXXXXXXXXXXXXX                    ",
"          ....................XXXXXXXXXXXXXXXXXXXX....................          ",
"          ....................XXXXXXXXXXXXXXXXXXXX....................          ",
"          ....................XXXXXXXXXXXXXXXXXXXX....................          ",
"          ....................XXXXXXXXXXXXXXXXXXXX....................          ",
"          ....................XXXXXXXXXXXXXXXXXXXX....................          ",
"          ....................XXXXXXXXXXXXXXXXXXXX....................          ",
"          ....................XXXXXXXXXXXXXXXXXXXX....................          ",
"          ....................XXXXXXXXXXXXXXXXXXXX....................          ",
"          ....................XXXXXXXXXXXXXXXXXXXX....................          ",
"          ....................XXXXXXXXXXXXXXXXXXXX....................          ",
"XXXXXXXXXX............................................................XXXXXXXXXX",
"XXXXXXXXXX............................................................XXXXXXXXXX",
"XXXXXXXXXX............................................................XXXXXXXXXX",
"XXXXXXXXXX............................................................XXXXXXXXXX",
"XXXXXXXXXX............................................................XXXXXXXXXX",
"XXXXXXXXXX............................................................XXXXXXXXXX",
"XXXXXXXXXX............................................................XXXXXXXXXX",
"XXXXXXXXXX............................................................XXXXXXXXXX",
"XXXXXXXXXX............................................................XXXXXXXXXX",
"XXXXXXXXXX............................................................XXXXXXXXXX",
"XXXXXXXXXXXXXXXXXXXX..........                    ..........XXXXXXXXXXXXXXXXXXXX",
"XXXXXXXXXXXXXXXXXXXX..........                    ..........XXXXXXXXXXXXXXXXXXXX",
"XXXXXXXXXXXXXXXXXXXX..........                    ..........XXXXXXXXXXXXXXXXXXXX",
"XXXXXXXXXXXXXXXXXXXX..........                    ..........XXXXXXXXXXXXXXXXXXXX",
"XXXXXXXXXXXXXXXXXXXX..........                    ..........XXXXXXXXXXXXXXXXXXXX",
"XXXXXXXXXXXXXXXXXXXX..........                    ..........XXXXXXXXXXXXXXXXXXXX",
"XXXXXXXXXXXXXXXXXXXX..........                    ..........XXXXXXXXXXXXXXXXXXXX",
"XXXXXXXXXXXXXXXXXXXX..........                    ..........XXXXXXXXXXXXXXXXXXXX",
"XXXXXXXXXXXXXXXXXXXX..........                    ..........XXXXXXXXXXXXXXXXXXXX",
"XXXXXXXXXXXXXXXXXXXX..........                    ..........XXXXXXXXXXXXXXXXXXXX"
};
