/* XPM */
static char *result[] = {
/* columns rows colors chars-per-pixel */
"80 80 20 1 ",
"  c #384038",
". c #E87807",
"X c #FF8819",
"o c #FFA600",
"O c #FFAA00",
"+ c #FFD804",
"@ c #FFDA13",
"# c #FFDC22",
"$ c #FFDE31",
"% c #FFE040",
"& c #FFE45E",
"* c #FFE55E",
"= c #FFE66D",
"- c #FFEB7C",
"; c #FFEF9A",
": c #FFF1A9",
"> c #FFF6C7",
", c #FFFAE5",
"< c white",
"1 c None",
/* pixels */
"11111111111111111111111111111111111111111111111111111111111111111111111111111111",
"11111111111111111111111111111111111111111111111111111111111111111111111111111111",
"11111111111111111111111111111111111111111111111111111111111111111111111111111111",
"11111111111111111111111111111111111111111111111111111111111111111111111111111111",
"111111111111111111111111111111111111++++++++111111111111111111111111111111111111",
"111111111111111111111111111111111111++++++++111111111111111111111111111111111111",
"111111111111111111111111111111111111++++++++111111111111111111111111111111111111",
"111111111111111111111111111111111111++++++++111111111111111111111111111111111111",
"11111111111111111111++++++++1111++++++++++++++++1111++++++++11111111111111111111",
"11111111111111111111++++++++1111++++++++++++++++1111++++++++11111111111111111111",
"11111111111111111111++++++++1111++++++++++++++++1111++++++++11111111111111111111",
"11111111111111111111++++++++1111++++++++++++++++1111++++++++11111111111111111111",
"1111111111111111OOOO++++OOOO++++++++::::;;;;####$$$$OOOO++++OOOO1111111111111111",
"1111111111111111OOOO++++OOOO++++++++::::;;;;####$$$$OOOO++++OOOO1111111111111111",
"1111111111111111OOOO++++OOOO++++++++::::;;;;####$$$$OOOO++++OOOO1111111111111111",
"1111111111111111OOOO++++OOOO++++++++::::;;;;####$$$$OOOO++++OOOO1111111111111111",
"1111111111111111OOOOXXXXOOOO++++>>>>,,,,::::====++++OOOOXXXXOOOO1111111111111111",
"1111111111111111OOOOXXXXOOOO++++>>>>,,,,::::====++++OOOOXXXXOOOO1111111111111111",
"1111111111111111OOOOXXXXOOOO++++>>>>,,,,::::====++++OOOOXXXXOOOO1111111111111111",
"1111111111111111OOOOXXXXOOOO++++>>>>,,,,::::====++++OOOOXXXXOOOO1111111111111111",
"1111111111111111XXXXOOOO++++$$$$----::::====&&&&++++++++OOOOXXXX1111111111111111",
"1111111111111111XXXXOOOO++++$$$$----::::====&&&&++++++++OOOOXXXX1111111111111111",
"1111111111111111XXXXOOOO++++$$$$----::::====&&&&++++++++OOOOXXXX1111111111111111",
"1111111111111111XXXXOOOO++++$$$$----::::====&&&&++++++++OOOOXXXX1111111111111111",
"1111111111111111++++++++++++%%%%****%%%%++++++++++++++++++++++++1111111111111111",
"1111111111111111++++++++++++%%%%****%%%%++++++++++++++++++++++++1111111111111111",
"1111111111111111++++++++++++%%%%****%%%%++++++++++++++++++++++++1111111111111111",
"1111111111111111++++++++++++%%%%****%%%%++++++++++++++++++++++++1111111111111111",
"11111111OOOO++++++++++++++++++++++++++++++++++++++++++++++++++++++++OOOO11111111",
"11111111OOOO++++++++++++++++++++++++++++++++++++++++++++++++++++++++OOOO11111111",
"11111111OOOO++++++++++++++++++++++++++++++++++++++++++++++++++++++++OOOO11111111",
"11111111OOOO++++++++++++++++++++++++++++++++++++++++++++++++++++++++OOOO11111111",
"1111OOOO++++++++@@@@++++++++    ++++++++++++++++    ++++++++++++++++++++OOOO1111",
"1111OOOO++++++++@@@@++++++++    ++++++++++++++++    ++++++++++++++++++++OOOO1111",
"1111OOOO++++++++@@@@++++++++    ++++++++++++++++    ++++++++++++++++++++OOOO1111",
"1111OOOO++++++++@@@@++++++++    ++++++++++++++++    ++++++++++++++++++++OOOO1111",
"1111XXXXOOOO++++@@@@++++++++<<<<++++++++++++++++<<<<++++++++++++++++OOOOXXXX1111",
"1111XXXXOOOO++++@@@@++++++++<<<<++++++++++++++++<<<<++++++++++++++++OOOOXXXX1111",
"1111XXXXOOOO++++@@@@++++++++<<<<++++++++++++++++<<<<++++++++++++++++OOOOXXXX1111",
"1111XXXXOOOO++++@@@@++++++++<<<<++++++++++++++++<<<<++++++++++++++++OOOOXXXX1111",
"11111111XXXXOOOO++++++++++++    ++++++++++++++++    ++++++++++++OOOOXXXX11111111",
"11111111XXXXOOOO++++++++++++    ++++++++++++++++    ++++++++++++OOOOXXXX11111111",
"11111111XXXXOOOO++++++++++++    ++++++++++++++++    ++++++++++++OOOOXXXX11111111",
"11111111XXXXOOOO++++++++++++    ++++++++++++++++    ++++++++++++OOOOXXXX11111111",
"111111111111XXXXOOOOOOOO++++    ++++++++++++++++    ++++OOOOOOOOXXXX111111111111",
"111111111111XXXXOOOOOOOO++++    ++++++++++++++++    ++++OOOOOOOOXXXX111111111111",
"111111111111XXXXOOOOOOOO++++++++++++++++++++++++++++++++OOOOOOOOXXXX111111111111",
"111111111111XXXXOOOOOOOO++++++++++++++++++++++++++++++++OOOOOOOOXXXX111111111111",
"11111111ooooooooXXXXOOOO++++++++++++++++++++++++++++++++OOOOXXXXoooooooo11111111",
"11111111ooooooooXXXXOOOO++++++++++++++++++++++++++++++++OOOOXXXXoooooooo11111111",
"11111111ooooooooXXXXOOOO++++++++++++++++++++++++++++++++OOOOXXXXoooooooo11111111",
"11111111ooooooooXXXXOOOO++++++++++++++++++++++++++++++++OOOOXXXXoooooooo11111111",
"1111oooo++++OOOOXXXXOOOO++++++++++++++++++++++++++++++++OOOOXXXXoooo++++oooo1111",
"1111oooo++++OOOOXXXXOOOO++++++++++++++++++++++++++++++++OOOOXXXXoooo++++oooo1111",
"1111oooo++++OOOOXXXXOOOO++++++++++++++++++++++++++++++++OOOOXXXXoooo++++oooo1111",
"1111oooo++++OOOOXXXXOOOO++++++++++++++++++++++++++++++++OOOOXXXXoooo++++oooo1111",
"1111XXXXooooooooXXXXXXXXOOOOoooo++++++++++++++++OOOOOOOOXXXXXXXXooooooooXXXX1111",
"1111XXXXooooooooXXXXXXXXOOOOoooo++++++++++++++++OOOOOOOOXXXXXXXXooooooooXXXX1111",
"1111XXXXooooooooXXXXXXXXOOOOoooo++++++++++++++++OOOOOOOOXXXXXXXXooooooooXXXX1111",
"1111XXXXooooooooXXXXXXXXOOOOoooo++++++++++++++++OOOOOOOOXXXXXXXXooooooooXXXX1111",
"11111111XXXXXXXX....XXXXXXXX++++++++++++++++++++++++XXXXXXXX....XXXXXXXX11111111",
"11111111XXXXXXXX....XXXXXXXX++++++++++++++++++++++++XXXXXXXX....XXXXXXXX11111111",
"11111111XXXXXXXX....XXXXXXXX++++++++++++++++++++++++XXXXXXXX....XXXXXXXX11111111",
"11111111XXXXXXXX....XXXXXXXX++++++++++++++++++++++++XXXXXXXX....XXXXXXXX11111111",
"1111111111111111....oooo++++++++OOOOXXXXXXXXOOOO++++++++oooo....1111111111111111",
"1111111111111111....oooo++++++++OOOOXXXXXXXXOOOO++++++++oooo....1111111111111111",
"1111111111111111....oooo++++++++OOOOXXXXXXXXOOOO++++++++oooo....1111111111111111",
"1111111111111111....oooo++++++++OOOOXXXXXXXXOOOO++++++++oooo....1111111111111111",
"1111111111111111....XXXXooooXXXXXXXX11111111XXXXXXXXooooXXXX....1111111111111111",
"1111111111111111....XXXXooooXXXXXXXX11111111XXXXXXXXooooXXXX....1111111111111111",
"1111111111111111....XXXXooooXXXXXXXX11111111XXXXXXXXooooXXXX....1111111111111111",
"1111111111111111....XXXXooooXXXXXXXX11111111XXXXXXXXooooXXXX....1111111111111111",
"11111111111111111111............1111111111111111............11111111111111111111",
"11111111111111111111............1111111111111111............11111111111111111111",
"11111111111111111111............1111111111111111............11111111111111111111",
"11111111111111111111............1111111111111111............11111111111111111111",
"11111111111111111111111111111111111111111111111111111111111111111111111111111111",
"11111111111111111111111111111111111111111111111111111111111111111111111111111111",
"11111111111111111111111111111111111111111111111111111111111111111111111111111111",
"11111111111111111111111111111111111111111111111111111111111111111111111111111111"
};
