/* XPM */
static char *result[] = {
/* columns rows colors chars-per-pixel */
"80 80 3 1 ",
"  c #FF00B8",
". c #FFC8FF",
"X c white",
/* pixels */
"...............................X                X......................X        ",
"...............................X                X......................X        ",
"...............................X                X......................X        ",
"...............................X                X......................X        ",
"...............................X                X......................X        ",
"...............................X                X......................X        ",
"...............................X                X......................X        ",
".......................XXXXXXXXX                X..............XXXXXXXXX        ",
".......................X                XXXXXXXXX..............X                ",
".......................X                X......................X                ",
".......................X                X......................X                ",
".......................X                X......................X                ",
".......................X                X......................X                ",
".......................X                X......................X                ",
".......................X                X......................X                ",
"...............XXXXXXXXX                X..............XXXXXXXXX                ",
"...............X                XXXXXXXXX..............X                XXXXXXXX",
"...............X                X......................X                X.......",
"...............X                X......................X                X.......",
"...............X                X......................X                X.......",
"...............X                X......................X                X.......",
"...............X                X......................X                X.......",
"...............X                X......................X                X.......",
".......XXXXXXXXX                X..............XXXXXXXXX                X.......",
".......X                XXXXXXXXX..............X                XXXXXXXXX.......",
".......X                X......................X                X...............",
".......X                X......................X                X...............",
".......X                X......................X                X...............",
".......X                X......................X                X...............",
".......X                X......................X                X...............",
".......X                X......................X                X...............",
"XXXXXXXX                X..............XXXXXXXXX                X..............X",
"                XXXXXXXXX..............X                XXXXXXXXX..............X",
"                X......................X                X......................X",
"                X......................X                X......................X",
"                X......................X                X......................X",
"                X......................X                X......................X",
"                X......................X                X......................X",
"                X......................X                X......................X",
"                X..............XXXXXXXXX                X..............XXXXXXXXX",
"        XXXXXXXXX..............X                XXXXXXXXX..............X        ",
"        X......................X                X......................X        ",
"        X......................X                X......................X        ",
"        X......................X                X......................X        ",
"        X......................X                X......................X        ",
"        X......................X                X......................X        ",
"        X......................X                X......................X        ",
"        X..............XXXXXXXXX                X..............XXXXXXXXX        ",
"XXXXXXXXX..............X                XXXXXXXXX..............X                ",
".......................X                X......................X                ",
".......................X                X......................X                ",
".......................X                X......................X                ",
".......................X                X......................X                ",
".......................X                X......................X                ",
".......................X                X......................X                ",
"...............XXXXXXXXX                X..............XXXXXXXXX                ",
"...............X                XXXXXXXXX..............X                XXXXXXXX",
"...............X                X......................X                X.......",
"...............X                X......................X                X.......",
"...............X                X......................X                X.......",
"...............X                X......................X                X.......",
"...............X                X......................X                X.......",
"...............X                X......................X                X.......",
".......XXXXXXXXX                X..............XXXXXXXXX                X.......",
".......X                XXXXXXXXX..............X                XXXXXXXXX.......",
".......X                X......................X                X...............",
".......X                X......................X                X...............",
".......X                X......................X                X...............",
".......X                X......................X                X...............",
".......X                X......................X                X...............",
".......X                X......................X                X...............",
"XXXXXXXX                X..............XXXXXXXXX                X...............",
"                XXXXXXXXX..............X                XXXXXXXXX...............",
"                X......................X                X.......................",
"                X......................X                X.......................",
"                X......................X                X.......................",
"                X......................X                X.......................",
"                X......................X                X.......................",
"                X......................X                X.......................",
"                X..............XXXXXXXXX                X......................."
};
