/* XPM */
static char *result[] = {
/* columns rows colors chars-per-pixel */
"80 80 8 1 ",
"  c #384038",
". c #E87807",
"X c #FF8819",
"o c #FFA600",
"O c #FFAA00",
"+ c #FFD804",
"@ c white",
"# c None",
/* pixels */
"################################################################################",
"################################################################################",
"################################################################################",
"################################################################################",
"########################OOOO########################OOOO########################",
"########################OOOO########################OOOO########################",
"########################OOOO########################OOOO########################",
"########################OOOO########################OOOO########################",
"####################++++OOOOOOOO####++++++++####OOOOOOOO++++####################",
"####################++++OOOOOOOO####++++++++####OOOOOOOO++++####################",
"####################++++OOOOOOOO####++++++++####OOOOOOOO++++####################",
"####################++++OOOOOOOO####++++++++####OOOOOOOO++++####################",
"################OOOO++++OOOOOOOO++++++++++++++++OOOOOOOO++++OOOO################",
"################OOOO++++OOOOOOOO++++++++++++++++OOOOOOOO++++OOOO################",
"################OOOO++++OOOOOOOO++++++++++++++++OOOOOOOO++++OOOO################",
"################OOOO++++OOOOOOOO++++++++++++++++OOOOOOOO++++OOOO################",
"################OOOOXXXXOOOO++++++++@@@@@@@@++++++++OOOOXXXXOOOO################",
"################OOOOXXXXOOOO++++++++@@@@@@@@++++++++OOOOXXXXOOOO################",
"################OOOOXXXXOOOO++++++++@@@@@@@@++++++++OOOOXXXXOOOO################",
"################OOOOXXXXOOOO++++++++@@@@@@@@++++++++OOOOXXXXOOOO################",
"################XXXXOOOO++++++++@@@@@@@@@@@@@@@@++++++++OOOOXXXX################",
"################XXXXOOOO++++++++@@@@@@@@@@@@@@@@++++++++OOOOXXXX################",
"################XXXXOOOO++++++++@@@@@@@@@@@@@@@@++++++++OOOOXXXX################",
"################XXXXOOOO++++++++@@@@@@@@@@@@@@@@++++++++OOOOXXXX################",
"################++++++++++++++++++++++++++++++++++++++++++++++++################",
"################++++++++++++++++++++++++++++++++++++++++++++++++################",
"################++++++++++++++++++++++++++++++++++++++++++++++++################",
"################++++++++++++++++++++++++++++++++++++++++++++++++################",
"########OOOO++++++++++++++++++++++++++++++++++++++++++++++++++++++++OOOO########",
"########OOOO++++++++++++++++++++++++++++++++++++++++++++++++++++++++OOOO########",
"########OOOO++++++++++++++++++++++++++++++++++++++++++++++++++++++++OOOO########",
"########OOOO++++++++++++++++++++++++++++++++++++++++++++++++++++++++OOOO########",
"####OOOO++++++++++++++++++++    ++++++++++++++++    ++++++++++++++++++++OOOO####",
"####OOOO++++++++++++++++++++    ++++++++++++++++    ++++++++++++++++++++OOOO####",
"####OOOO++++++++++++++++++++    ++++++++++++++++    ++++++++++++++++++++OOOO####",
"####OOOO++++++++++++++++++++    ++++++++++++++++    ++++++++++++++++++++OOOO####",
"####XXXXOOOO++++++++++++++++@@@@++++++++++++++++@@@@++++++++++++++++OOOOXXXX####",
"####XXXXOOOO++++++++++++++++@@@@++++++++++++++++@@@@++++++++++++++++OOOOXXXX####",
"####XXXXOOOO++++++++++++++++@@@@++++++++++++++++@@@@++++++++++++++++OOOOXXXX####",
"####XXXXOOOO++++++++++++++++@@@@++++++++++++++++@@@@++++++++++++++++OOOOXXXX####",
"########XXXXOOOO++++++++++++    ++++++++++++++++    ++++++++++++OOOOXXXX########",
"########XXXXOOOO++++++++++++    ++++++++++++++++    ++++++++++++OOOOXXXX########",
"########XXXXOOOO++++++++++++    ++++++++++++++++    ++++++++++++OOOOXXXX########",
"########XXXXOOOO++++++++++++    ++++++++++++++++    ++++++++++++OOOOXXXX########",
"############XXXXOOOOOOOO++++    ++++++++++++++++    ++++OOOOOOOOXXXX############",
"############XXXXOOOOOOOO++++    ++++++++++++++++    ++++OOOOOOOOXXXX############",
"############XXXXOOOOOOOO++++    ++++++++++++++++    ++++OOOOOOOOXXXX############",
"############XXXXOOOOOOOO++++    ++++++++++++++++    ++++OOOOOOOOXXXX############",
"########ooooooooXXXXOOOO++++++++++++++++++++++++++++++++OOOOXXXXoooooooo########",
"########ooooooooXXXXOOOO++++++++++++++++++++++++++++++++OOOOXXXXoooooooo########",
"########ooooooooXXXXOOOO++++++++++++++++++++++++++++++++OOOOXXXXoooooooo########",
"########ooooooooXXXXOOOO++++++++++++++++++++++++++++++++OOOOXXXXoooooooo########",
"####oooo++++OOOOXXXXOOOO++++++++++++++++++++++++++++++++OOOOXXXXoooo++++oooo####",
"####oooo++++OOOOXXXXOOOO++++++++++++++++++++++++++++++++OOOOXXXXoooo++++oooo####",
"####oooo++++OOOOXXXXOOOO++++++++++++++++++++++++++++++++OOOOXXXXoooo++++oooo####",
"####oooo++++OOOOXXXXOOOO++++++++++++++++++++++++++++++++OOOOXXXXoooo++++oooo####",
"####XXXXooooooooXXXXXXXXOOOOoooo++++++++++++++++OOOOOOOOXXXXXXXXooooooooXXXX####",
"####XXXXooooooooXXXXXXXXOOOOoooo++++++++++++++++OOOOOOOOXXXXXXXXooooooooXXXX####",
"####XXXXooooooooXXXXXXXXOOOOoooo++++++++++++++++OOOOOOOOXXXXXXXXooooooooXXXX####",
"####XXXXooooooooXXXXXXXXOOOOoooo++++++++++++++++OOOOOOOOXXXXXXXXooooooooXXXX####",
"########XXXXXXXX....XXXXXXXX++++++++++++++++++++++++XXXXXXXX....XXXXXXXX########",
"########XXXXXXXX....XXXXXXXX++++++++++++++++++++++++XXXXXXXX....XXXXXXXX########",
"########XXXXXXXX....XXXXXXXX++++++++++++++++++++++++XXXXXXXX....XXXXXXXX########",
"########XXXXXXXX....XXXXXXXX++++++++++++++++++++++++XXXXXXXX....XXXXXXXX########",
"################....oooo++++++++OOOOXXXXXXXXOOOO++++++++oooo....################",
"################....oooo++++++++OOOOXXXXXXXXOOOO++++++++oooo....################",
"################....oooo++++++++OOOOXXXXXXXXOOOO++++++++oooo....################",
"################....oooo++++++++OOOOXXXXXXXXOOOO++++++++oooo....################",
"################....XXXXooooXXXXXXXX########XXXXXXXXooooXXXX....################",
"################....XXXXooooXXXXXXXX########XXXXXXXXooooXXXX....################",
"################....XXXXooooXXXXXXXX########XXXXXXXXooooXXXX....################",
"################....XXXXooooXXXXXXXX########XXXXXXXXooooXXXX....################",
"####################............################............####################",
"####################............################............####################",
"####################............################............####################",
"####################............################............####################",
"################################################################################",
"################################################################################",
"################################################################################",
"################################################################################"
};
