/* XPM */
static char *zen_chan_L01690191110[] = {
/* columns rows colors chars-per-pixel */
"80 80 7 1 ",
"  c black",
". c #FF0077",
"X c #8801FF",
"o c #0099FF",
"O c #8888BB",
"+ c #AAAADD",
"@ c white",
/* pixels */
"                                                                                ",
"                                                                                ",
"                                                                                ",
"                                                                                ",
"                                                                                ",
"                                                                                ",
"                                                                                ",
"                                                                                ",
"                        ++++++++++++++++++++++++                                ",
"                        ++++++++++++++++++++++++                                ",
"                        ++++++++++++++++++++++++                                ",
"                        ++++++++++++++++++++++++                                ",
"                    ++++++++@@@@++++++++++++++++++++++++++++                    ",
"                    ++++++++@@@@++++++++++++++++++++++++++++                    ",
"                    ++++++++@@@@++++++++++++++++++++++++++++                    ",
"                    ++++++++@@@@++++++++++++++++++++++++++++                    ",
"                ++++++++@@@@++++++++++++++++++++++++++++++++++++                ",
"                ++++++++@@@@++++++++++++++++++++++++++++++++++++                ",
"                ++++++++@@@@++++++++++++++++++++++++++++++++++++                ",
"                ++++++++@@@@++++++++++++++++++++++++++++++++++++                ",
"                ++++++++++++++++++++++++++++++++++++++++++++++++                ",
"                ++++++++++++++++++++++++++++++++++++++++++++++++                ",
"                ++++++++++++++++++++++++++++++++++++++++++++++++                ",
"                ++++++++++++++++++++++++++++++++++++++++++++++++                ",
"                ++++    ++++    ++++++++++++++++++++++++++++++++                ",
"                ++++    ++++    ++++++++++++++++++++++++++++++++   @            ",
"                ++++    ++++    ++++++++++++++++++++++++++++++++                ",
"                ++++    ++++    ++++++++++++++++++++++++++++++++                ",
"                ++++    ++++    ++++++++++++++++++++XXXXoooooooo                ",
"                ++++    ++++    ++++++++++++++++++++XXXXoooooooo                ",
"                ++++    ++++    ++++++++++++++++++++XXXXoooooooo                ",
"                ++++    ++++    ++++++++++++++++++++XXXXoooooooo                ",
"                ++++    ++++    ++++++++++++++++XXXXooooXXXXXXXXoooo            ",
"                ++++    ++++    ++++++++++++++++XXXXooooXXXXXXXXoooo            ",
"                ++++    ++++    ++++++++++++++++XXXXooooXXXXXXXXoooo            ",
"                ++++    ++++    ++++++++++++++++XXXXooooXXXXXXXXoooo            ",
"                ++++++++++++++++++++++++++++++++XXXXooooXXXXXXXXoooo            ",
"                ++++++++++++++++++++++++++++++++XXXXooooXXXXXXXXoooo            ",
"                ++++++++++++++++++++++++++++++++XXXXooooXXXXXXXXoooo            ",
"                ++++++++++++++++++++++++++++++++XXXXooooXXXXXXXXoooo            ",
"                                        ++++++++++++XXXXoooooooo                ",
"                                        ++++++++++++XXXXoooooooo                ",
"                                       @++++++++++++XXXXoooooooo                ",
"                                        ++++++++++++XXXXoooooooo                ",
"                                                    oooooooooooo                ",
"                                                    oooooooooooo                ",
"                                                    oooooooooooo                ",
"                                                    oooooooooooo                ",
"            OOOOOOOOOOOOOOOOOOOOOOOOOOOOOOOOOOOOXXXXooooXXXXXXXXoooo            ",
"            OOOOOOOOOOOOOOOOOOOOOOOOOOOOOOOOOOOOXXXXooooXXXXXXXXoooo            ",
"            OOOOOOOOOOOOOOOOOOOOOOOOOOOOOOOOOOOOXXXXooooXXXXXXXXoooo            ",
"            OOOOOOOOOOOOOOOOOOOOOOOOOOOOOOOOOOOOXXXXooooXXXXXXXXoooo            ",
"            OOOOOOOOOOOOOOOOOOOOOOOOOOOOOOOOOOOOXXXXooooXXXXXXXXoooo            ",
"            OOOOOOOOOOOOOOOOOOOOOOOOOOOOOOOOOOOOXXXXooooXXXXXXXXoooo            ",
"            OOOOOOOOOOOOOOOOOOOOOOOOOOOOOOOOOOOOXXXXooooXXXXXXXXoooo            ",
"            OOOOOOOOOOOOOOOOOOOOOOOOOOOOOOOOOOOOXXXXooooXXXXXXXXoooo            ",
"            OOOOOOOOOOOOOOOOOOOOOOOOOOOOOOOOOOOOOOOOXXXXoooooooo                ",
"            OOOOOOOOOOOOOOOOOOOOOOOOOOOOOOOOOOOOOOOOXXXXoooooooo                ",
"            OOOOOOOOOOOOOOOOOOOOOOOOOOOOOOOOOOOOOOOOXXXXoooooooo                ",
"            OOOOOOOOOOOOOOOOOOOOOOOOOOOOOOOOOOOOOOOOXXXXoooooooo                ",
"        ........OOOOOOOOOOOOOOOOOOOOOOOOOOOOOOOOOOOOOOOOXXXX                    ",
"        ........OOOOOOOOOOOOOOOOOOOOOOOOOOOOOOOOOOOOOOOOXXXX                    ",
"        ........OOOOOOOOOOOOOOOOOOOOOOOOOOOOOOOOOOOOOOOOXXXX                    ",
"        ........OOOOOOOOOOOOOOOOOOOOOOOOOOOOOOOOOOOOOOOOXXXX                    ",
"                ................        ............                            ",
"                ................        ............                            ",
"                ................        ............                            ",
"                ................        ............                            ",
"            @                   ........................                        ",
"                                ........................                        ",
"                                ........................                        ",
"                                ........................                        ",
"                                                                                ",
"                                                                                ",
"                                                                                ",
"                                                                                ",
"                                                                                ",
"                                                                                ",
"                                                                                ",
"                                                                                "
};
