/* XPM */
static char *zen_chan_R31690191113[] = {
/* columns rows colors chars-per-pixel */
"80 80 7 1 ",
"  c black",
". c #FF0077",
"X c #8801FF",
"o c #0099FF",
"O c #8888BB",
"+ c #AAAADD",
"@ c white",
/* pixels */
"                                                                                ",
"                                                                                ",
"                                                                                ",
"                                                                                ",
"                                                                                ",
"                                                                                ",
"                                                                                ",
"                                                                                ",
"                    ++++++++++++++++++++++++++++++++++++++++                    ",
"                    ++++++++++++++++++++++++++++++++++++++++                    ",
"                    ++++++++++++++++++++++++++++++++++++++++                    ",
"                    ++++++++++++++++++++++++++++++++++++++++                    ",
"                ++++++++++++++++++++++++++++++++++++@@@@++++++++                ",
"                ++++++++++++++++++++++++++++++++++++@@@@++++++++                ",
"                ++++++++++++++++++++++++++++++++++++@@@@++++++++                ",
"                ++++++++++++++++++++++++++++++++++++@@@@++++++++                ",
"                ++++++++++++++++++++++++++++++++++++++++@@@@++++                ",
"                ++++++++++++++++++++++++++++++++++++++++@@@@++++                ",
"                ++++++++++++++++++++++++++++++++++++++++@@@@++++                ",
"                ++++++++++++++++++++++++++++++++++++++++@@@@++++                ",
"                ++++++++++++++++++++++++++++++++++++++++@@@@++++                ",
"                ++++++++++++++++++++++++++++++++++++++++@@@@++++                ",
"                ++++++++++++++++++++++++++++++++++++++++@@@@++++                ",
"                ++++++++++++++++++++++++++++++++++++++++@@@@++++                ",
"                ++++++++++++++++++++++++++++++++++++++++++++++++                ",
"                ++++++++++++++++++++++++++++++++++++++++++++++++   @            ",
"                ++++++++++++++++++++++++++++++++++++++++++++++++                ",
"                ++++++++++++++++++++++++++++++++++++++++++++++++                ",
"            oooooooo++++++++++++++++++++++++++++++++++++++++++++                ",
"            oooooooo++++++++++++++++++++++++++++++++++++++++++++                ",
"            oooooooo++++++++++++++++++++++++++++++++++++++++++++                ",
"            oooooooo++++++++++++++++++++++++++++++++++++++++++++                ",
"        ooooXXXXXXXXoooo++++++++++++++++++++++++    ++++    ++++                ",
"        ooooXXXXXXXXoooo++++++++++++++++++++++++    ++++    ++++                ",
"        ooooXXXXXXXXoooo++++++++++++++++++++++++    ++++    ++++                ",
"        ooooXXXXXXXXoooo++++++++++++++++++++++++    ++++    ++++                ",
"        ooooXXXXXXXXoooo++++++++++++++++++++++++    ++++    ++++                ",
"        ooooXXXXXXXXoooo++++++++++++++++++++++++    ++++    ++++                ",
"        ooooXXXXXXXXoooo++++++++++++++++++++++++    ++++    ++++                ",
"        ooooXXXXXXXXoooo++++++++++++++++++++++++    ++++    ++++                ",
"        XXXXoooooooooooooooooooo++++++++++++++++    ++++    ++++                ",
"        XXXXoooooooooooooooooooo++++++++++++++++    ++++    ++++                ",
"        XXXXoooooooooooooooooooo++++++++++++++++    ++++    ++++                ",
"        XXXXoooooooooooooooooooo++++++++++++++++    ++++    ++++                ",
"            XXXXXXXXooooXXXXXXXXoooo++++++++++++++++++++++++++++                ",
"            XXXXXXXXooooXXXXXXXXoooo++++++++++++++++++++++++++++                ",
"            XXXXXXXXooooXXXXXXXXoooo++++++++++++++++++++++++++++                ",
"            XXXXXXXXooooXXXXXXXXoooo++++++++++++++++++++++++++++                ",
"                OOOOooooXXXXXXXXooooOOOOOOOO++++++++++++++++++++                ",
"                OOOOooooXXXXXXXXooooOOOOOOOO++++++++++++++++++++                ",
"                OOOOooooXXXXXXXXooooOOOOOOOO++++++++++++++++++++                ",
"                OOOOooooXXXXXXXXooooOOOOOOOO++++++++++++++++++++                ",
"                OOOOXXXXooooooooXXXXOOOOOOOOOOOOOOOOOOOOOOOOOOOOOOOO            ",
"                OOOOXXXXooooooooXXXXOOOOOOOOOOOOOOOOOOOOOOOOOOOOOOOO            ",
"                OOOOXXXXooooooooXXXXOOOOOOOOOOOOOOOOOOOOOOOOOOOOOOOO            ",
"                OOOOXXXXooooooooXXXXOOOOOOOOOOOOOOOOOOOOOOOOOOOOOOOO            ",
"                OOOOOOOOXXXXXXXXOOOOOOOOOOOOOOOOOOOOOOOOOOOOOOOOOOOO            ",
"                OOOOOOOOXXXXXXXXOOOOOOOOOOOOOOOOOOOOOOOOOOOOOOOOOOOO            ",
"                OOOOOOOOXXXXXXXXOOOOOOOOOOOOOOOOOOOOOOOOOOOOOOOOOOOO            ",
"                OOOOOOOOXXXXXXXXOOOOOOOOOOOOOOOOOOOOOOOOOOOOOOOOOOOO            ",
"                OOOO....................OOOOOOOOOOOOOOOOOOOOOOOO                ",
"                OOOO....................OOOOOOOOOOOOOOOOOOOOOOOO                ",
"                OOOO....................OOOOOOOOOOOOOOOOOOOOOOOO                ",
"                OOOO....................OOOOOOOOOOOOOOOOOOOOOOOO                ",
"                        ............        ............                        ",
"                        ............        ............                        ",
"                        ............        ............                        ",
"                        ............        ............                        ",
"            @                           ........................                ",
"                                        ........................                ",
"                                        ........................                ",
"                                        ........................                ",
"                                                                                ",
"                                                                                ",
"                                                                                ",
"                                                                                ",
"                                                                                ",
"                                                                                ",
"                                                                                ",
"                                                                                "
};
