/* XPM */
static char *zen_chan_R21690191113[] = {
/* columns rows colors chars-per-pixel */
"80 80 7 1 ",
"  c black",
". c #FF0077",
"X c #8801FF",
"o c #0099FF",
"O c #8888BB",
"+ c #AAAADD",
"@ c white",
/* pixels */
"                                                                                ",
"                                                                                ",
"                                                                                ",
"                                                                                ",
"                                                                                ",
"                                                                                ",
"                                                                                ",
"                                                                                ",
"                                ++++++++++++++++++++++++                        ",
"                                ++++++++++++++++++++++++                        ",
"                                ++++++++++++++++++++++++                        ",
"                                ++++++++++++++++++++++++                        ",
"                    ++++++++++++++++++++++++++++@@@@++++++++                    ",
"                    ++++++++++++++++++++++++++++@@@@++++++++                    ",
"                    ++++++++++++++++++++++++++++@@@@++++++++                    ",
"                    ++++++++++++++++++++++++++++@@@@++++++++                    ",
"                ++++++++++++++++++++++++++++++++++++@@@@++++++++                ",
"                ++++++++++++++++++++++++++++++++++++@@@@++++++++                ",
"                ++++++++++++++++++++++++++++++++++++@@@@++++++++                ",
"                ++++++++++++++++++++++++++++++++++++@@@@++++++++                ",
"                ++++++++++++++++++++++++++++++++++++++++++++++++                ",
"                ++++++++++++++++++++++++++++++++++++++++++++++++                ",
"                ++++++++++++++++++++++++++++++++++++++++++++++++                ",
"                ++++++++++++++++++++++++++++++++++++++++++++++++                ",
"                ++++++++++++++++++++++++++++++++    ++++    ++++                ",
"                ++++++++++++++++++++++++++++++++    ++++    ++++   @            ",
"                ++++++++++++++++++++++++++++++++    ++++    ++++                ",
"                ++++++++++++++++++++++++++++++++    ++++    ++++                ",
"                ++++++++++++++++++++++++++++++++    ++++    ++++                ",
"                ++++++++++++++++++++++++++++++++    ++++    ++++                ",
"                ++++++++++++++++++++++++++++++++    ++++    ++++                ",
"                ++++++++++++++++++++++++++++++++    ++++    ++++                ",
"                ++++++++++++++++++++++++++++++++    ++++    ++++                ",
"                ++++++++++++++++++++++++++++++++    ++++    ++++                ",
"                ++++++++++++++++++++++++++++++++    ++++    ++++                ",
"                ++++++++++++++++++++++++++++++++    ++++    ++++                ",
"        oooooooo++++++++oooooooo++++++++++++++++++++++++++++++++                ",
"        oooooooo++++++++oooooooo++++++++++++++++++++++++++++++++                ",
"        oooooooo++++++++oooooooo++++++++++++++++++++++++++++++++                ",
"        oooooooo++++++++oooooooo++++++++++++++++++++++++++++++++                ",
"    ooooXXXXXXXXooooooooXXXXXXXXoooo                                            ",
"    ooooXXXXXXXXooooooooXXXXXXXXoooo                                            ",
"    ooooXXXXXXXXooooooooXXXXXXXXoooo   @                                        ",
"    ooooXXXXXXXXooooooooXXXXXXXXoooo                                            ",
"    ooooXXXXXXXXooooooooXXXXXXXXoooo                                            ",
"    ooooXXXXXXXXooooooooXXXXXXXXoooo                                            ",
"    ooooXXXXXXXXooooooooXXXXXXXXoooo                                            ",
"    ooooXXXXXXXXooooooooXXXXXXXXoooo                                            ",
"    XXXXooooooooooooXXXXooooooooXXXXOOOOOOOOOOOOOOOOOOOOOOOOOOOOOOOO            ",
"    XXXXooooooooooooXXXXooooooooXXXXOOOOOOOOOOOOOOOOOOOOOOOOOOOOOOOO            ",
"    XXXXooooooooooooXXXXooooooooXXXXOOOOOOOOOOOOOOOOOOOOOOOOOOOOOOOO            ",
"    XXXXooooooooooooXXXXooooooooXXXXOOOOOOOOOOOOOOOOOOOOOOOOOOOOOOOO            ",
"        XXXXXXXXOOOOOOOOXXXXXXXXOOOOOOOOOOOOOOOOOOOOOOOOOOOOOOOOOOOO            ",
"        XXXXXXXXOOOOOOOOXXXXXXXXOOOOOOOOOOOOOOOOOOOOOOOOOOOOOOOOOOOO            ",
"        XXXXXXXXOOOOOOOOXXXXXXXXOOOOOOOOOOOOOOOOOOOOOOOOOOOOOOOOOOOO            ",
"        XXXXXXXXOOOOOOOOXXXXXXXXOOOOOOOOOOOOOOOOOOOOOOOOOOOOOOOOOOOO            ",
"                OOOOOOOOOOOOOOOOOOOOOOOOOOOOOOOOOOOOOOOO................        ",
"                OOOOOOOOOOOOOOOOOOOOOOOOOOOOOOOOOOOOOOOO................        ",
"                OOOOOOOOOOOOOOOOOOOOOOOOOOOOOOOOOOOOOOOO................        ",
"                OOOOOOOOOOOOOOOOOOOOOOOOOOOOOOOOOOOOOOOO................        ",
"                    OOOOOOOOOOOOOOOOOOOOOOOOOOOOOOOO................            ",
"                    OOOOOOOOOOOOOOOOOOOOOOOOOOOOOOOO................            ",
"                    OOOOOOOOOOOOOOOOOOOOOOOOOOOOOOOO................            ",
"                    OOOOOOOOOOOOOOOOOOOOOOOOOOOOOOOO................            ",
"                            ............        ................                ",
"                            ............        ................                ",
"                            ............        ................                ",
"                            ............        ................                ",
"            @           ........................                                ",
"                        ........................                                ",
"                        ........................                                ",
"                        ........................                                ",
"                                                                                ",
"                                                                                ",
"                                                                                ",
"                                                                                ",
"                                                                                ",
"                                                                                ",
"                                                                                ",
"                                                                                "
};
